<svg width="300" height="228" viewBox="0 0 300 228" fill="none" xmlns="http://www.w3.org/2000/svg">
<path d="M215.864 65.3512C215.947 53.2235 213.041 42.2839 207.48 33.5568C196.149 13.5623 174.484 0.000488281 149.664 0.000488281C113.182 0.000488281 83.5067 29.2957 83.4652 65.3103C83.3822 77.4381 86.2875 88.3777 91.8491 97.1048C103.18 117.099 124.845 130.661 149.664 130.661C186.147 130.661 215.822 101.366 215.864 65.3512Z" fill="#EAAC00"/>
<path d="M149.667 118.409C120.008 118.409 95.8813 94.5984 95.8813 65.3291C95.8813 36.0599 120.008 12.2498 149.667 12.2498C179.326 12.2498 203.453 36.0599 203.453 65.3291C203.453 94.5984 179.326 118.409 149.667 118.409ZM149.667 19.1962C123.892 19.1962 102.92 39.8927 102.92 65.3291C102.92 90.7656 123.892 111.462 149.667 111.462C175.442 111.462 196.414 90.7656 196.414 65.3291C196.414 39.8927 175.442 19.1962 149.667 19.1962Z" fill="white"/>
<path d="M125.785 105.361C124.882 105.361 123.967 105.304 123.044 105.19C115.911 104.303 108.98 99.9105 104.029 93.1315C98.6344 85.7437 95.815 76.1208 95.8771 65.3088L102.915 65.3496C102.832 80.0476 110.164 96.5925 123.922 98.3005C132.289 99.3343 138.929 93.4624 141.678 82.5769L150.815 46.402C152.645 39.1532 156.082 33.3917 160.743 29.7427C165.223 26.2409 170.592 24.7617 176.277 25.4645C183.41 26.3512 190.34 30.7438 195.292 37.5228C200.686 44.9106 203.506 54.5335 203.444 65.3455L196.406 65.3047C196.488 50.6067 189.156 34.0618 175.399 32.3538C167.032 31.3118 160.391 37.1918 157.642 48.0774L148.505 84.2523C146.675 91.5011 143.239 97.2626 138.577 100.912C134.827 103.845 130.451 105.357 125.785 105.357V105.361Z" fill="white"/>
<path d="M135.277 53.994L134.812 60.9253L165.034 62.9013L165.5 55.97L135.277 53.994Z" fill="white"/>
<path d="M134.344 67.8575L133.879 74.7888L164.101 76.7648L164.567 69.8335L134.344 67.8575Z" fill="white"/>
<path d="M12.4813 201.114C12.4813 206.304 13.8993 210.378 16.7354 213.335C19.5715 216.292 23.373 217.771 28.14 217.771C32.8467 217.771 36.5879 216.322 39.3636 213.425C42.1394 210.468 43.5272 206.365 43.5272 201.114V163.819H55.656V201.114C55.656 206.667 54.5396 211.464 52.307 215.508C50.1347 219.49 46.9667 222.568 42.8031 224.741C38.6999 226.913 33.8122 228 28.14 228C22.4075 228 17.4595 226.913 13.2959 224.741C9.1323 222.568 5.93417 219.49 3.70152 215.508C1.46887 211.464 0.352539 206.667 0.352539 201.114V163.819H12.4813V201.114Z" fill="black"/>
<path d="M108.865 179.48C106.632 178.092 104.339 176.945 101.986 176.04C99.6929 175.135 97.5206 174.501 95.4689 174.139C93.4173 173.716 91.5467 173.505 89.8571 173.505C87.0211 173.505 84.7281 174.048 82.9781 175.135C81.2886 176.221 80.4438 177.82 80.4438 179.932C80.4438 181.863 81.0472 183.432 82.254 184.639C83.5212 185.846 85.1505 186.842 87.1417 187.627C89.1934 188.411 91.426 189.166 93.8397 189.89C96.2534 190.614 98.6671 191.429 101.081 192.334C103.494 193.179 105.697 194.295 107.688 195.683C109.74 197.071 111.369 198.851 112.576 201.024C113.783 203.196 114.386 205.912 114.386 209.171C114.386 213.094 113.33 216.443 111.218 219.219C109.106 221.995 106.21 224.137 102.529 225.646C98.9084 227.155 94.775 227.909 90.1287 227.909C86.7495 227.909 83.4307 227.487 80.1722 226.642C76.9741 225.737 73.9268 224.53 71.0304 223.021C68.1944 221.512 65.6298 219.762 63.3368 217.771L68.4056 207.904C70.5779 209.895 72.9312 211.615 75.4656 213.063C77.9999 214.451 80.5343 215.538 83.0687 216.322C85.6634 217.046 88.077 217.408 90.3097 217.408C93.7492 217.408 96.4042 216.745 98.2748 215.417C100.206 214.089 101.171 212.219 101.171 209.805C101.171 207.813 100.538 206.214 99.2705 205.007C98.0636 203.8 96.4646 202.804 94.4733 202.02C92.482 201.175 90.2493 200.451 87.7753 199.847C85.3617 199.183 82.948 198.429 80.5343 197.584C78.1206 196.679 75.888 195.562 73.8363 194.235C71.845 192.847 70.2158 191.097 68.9486 188.984C67.7418 186.872 67.1384 184.187 67.1384 180.928C67.1384 177.247 68.134 174.078 70.1253 171.423C72.1166 168.707 74.8621 166.625 78.362 165.177C81.9222 163.668 86.0858 162.914 90.8528 162.914C95.0767 162.914 99.18 163.518 103.163 164.725C107.205 165.931 110.735 167.531 113.753 169.522L108.865 179.48Z" fill="black"/>
<path d="M151.309 163.819C156.136 163.819 160.541 164.604 164.524 166.173C168.567 167.682 172.037 169.854 174.933 172.69C177.89 175.527 180.183 178.876 181.812 182.738C183.441 186.601 184.256 190.855 184.256 195.502C184.256 200.089 183.441 204.313 181.812 208.175C180.183 212.037 177.89 215.387 174.933 218.223C171.976 221.06 168.446 223.262 164.343 224.831C160.24 226.4 155.774 227.185 150.947 227.185H124.97V163.819H151.309ZM151.581 217.046C154.477 217.046 157.162 216.533 159.636 215.508C162.11 214.421 164.252 212.943 166.063 211.072C167.933 209.141 169.381 206.878 170.407 204.283C171.493 201.627 172.037 198.731 172.037 195.593C172.037 192.394 171.493 189.497 170.407 186.902C169.321 184.247 167.843 181.954 165.972 180.023C164.102 178.031 161.899 176.523 159.365 175.497C156.83 174.471 154.055 173.958 151.038 173.958H137.099V217.046H151.581Z" fill="black"/>
<path d="M194.071 163.819H237.789V173.958H206.2V191.61H234.892V201.658H206.2V227.185H194.071V163.819Z" fill="black"/>
<path d="M291.825 181.471C289.593 178.937 286.938 176.945 283.86 175.497C280.783 173.988 277.705 173.234 274.628 173.234C271.671 173.234 268.896 173.807 266.301 174.954C263.766 176.04 261.504 177.609 259.512 179.661C257.581 181.652 256.073 183.976 254.987 186.631C253.901 189.286 253.357 192.153 253.357 195.231C253.357 198.308 253.901 201.205 254.987 203.921C256.073 206.576 257.581 208.899 259.512 210.891C261.504 212.882 263.766 214.451 266.301 215.598C268.896 216.745 271.671 217.318 274.628 217.318C277.705 217.318 280.753 216.654 283.77 215.326C286.787 213.938 289.472 212.068 291.825 209.714L298.976 217.227C296.864 219.4 294.42 221.301 291.644 222.93C288.929 224.56 286.063 225.827 283.046 226.732C280.089 227.577 277.072 228 273.994 228C269.348 228 265.003 227.185 260.961 225.555C256.978 223.866 253.478 221.542 250.461 218.585C247.504 215.628 245.181 212.158 243.492 208.175C241.802 204.192 240.957 199.938 240.957 195.412C240.957 190.825 241.802 186.601 243.492 182.738C245.181 178.816 247.565 175.376 250.642 172.419C253.72 169.462 257.25 167.169 261.232 165.539C265.275 163.91 269.68 163.095 274.447 163.095C277.524 163.095 280.511 163.518 283.408 164.362C286.365 165.147 289.17 166.294 291.825 167.802C294.481 169.251 296.834 171.031 298.885 173.143L291.825 181.471Z" fill="black"/>
</svg>
